<svg xmlns="http://www.w3.org/2000/svg" width="137.7" height="121.5"><style>.st0,.st1{stroke-linecap:round}.st0{fill:none;stroke:#919191;stroke-width:3;stroke-miterlimit:10}.st1{stroke-linejoin:round}.st1,.st3{fill:none;stroke:#919191;stroke-width:3;stroke-miterlimit:10}</style><path class="st0" d="M63.4 96.8l-2.3-8.2c-2.1-7.4-7.3-13.5-14.2-16.7l-5.7-2.7c-3.4-1.6-5.9-4.5-6.9-8.1l-2.8-9.8.2-1.6c.4-3.3-1.1-6.5-3.9-8.3l-.1-.1m7.4 39.2c-.4.1-.8.1-1.2.1-6.6.6-13-2.4-17.1-7.7-8.4-10.7-14.8-4-14.8-4s6.9 8.3 11.6 16.5c3.4 5.9 8.9 10.3 15.4 12l1.2.3c4.3.9 7.9 3.7 9.9 7.5"/><path class="st0" d="M8.3 66.9l-2.9-13 8.4-25.8s4.8 1.2 3.6 8.6l-3.8 16.8L16.2 64"/><path class="st0" d="M16.8 30.8l2.3-7s6.2 2.3 4.1 10.6l-3.5 18.2 2.8 9.8"/><path class="st0" d="M23.7 30.8l.3.2c2.9 2.2 4.4 5.8 3.7 9.4l-2 10.8 2.9 10"/><path class="st1" d="M60.5 113.9L40.9 120l-5.3-13.2 27.8-10v6.7"/><path class="st0" d="M37.9 112.5l25.5-9m11-6.7l2.3-8.2c2.1-7.4 7.3-13.5 14.2-16.7l5.7-2.7c3.4-1.6 5.9-4.5 6.9-8.1l2.8-9.8-.2-1.6c-.4-3.3 1.1-6.5 3.9-8.3l.1-.1m-7.5 39.2c.4.1.8.1 1.2.1 6.6.6 13-2.4 17.1-7.7 8.4-10.8 14.8-4 14.8-4s-6.9 8.3-11.6 16.5c-3.4 5.8-8.8 10.3-15.4 11.9l-1.2.3c-4.3.9-7.9 3.7-9.9 7.5"/><path class="st0" d="M129.5 66.9l2.9-13.1L124 28s-4.8 1.2-3.6 8.6l3.8 16.8-2.6 10.6"/><path class="st0" d="M120.9 30.8l-2.3-7s-6.2 2.3-4.1 10.6l3.5 18.2-2.8 9.8"/><path class="st0" d="M114.1 30.8l-.3.2c-2.9 2.2-4.4 5.8-3.7 9.4l2 10.8-2.9 10"/><path class="st1" d="M77.2 113.9l19.7 6.1 5.2-13.2-27.7-10v6.7"/><path class="st0" d="M99.9 112.5l-25.5-9"/><path d="M76.3 25.2v-.4c0-3.4-2.4-6.2-5.6-6.7v-1.8h-2.4v1.8c-3.2.6-5.6 3.4-5.6 6.7 0 2.9 1.9 5.4 5 6.6.4.2.8.3 1.3.4.7.2 1.5.5 2.1.8 1.8.9 2.9 2.3 2.9 4.1 0 2.4-2 4.4-4.4 4.4-2.4 0-4.4-1.9-4.4-4.3v-.4h-2.4v.4c0 3.3 2.5 6.1 5.6 6.6v1.8h2.4v-1.8c3.2-.6 5.6-3.4 5.6-6.7 0-1.5-.5-2.9-1.6-4.3-1-1.3-2.5-1.9-3.7-2.4-.3-.1-.7-.2-1-.3-1.1-.4-2.3-.8-3.2-1.4-1-.8-1.7-2.1-1.7-3.4 0-2.4 2-4.4 4.4-4.4 2.4 0 4.4 2 4.4 4.4v.4h2.3z" fill="#919191"/><path class="st3" d="M98.7 30.8c0-16.2-13.1-29.3-29.3-29.3-16.2 0-29.3 13.1-29.3 29.3 0 16.2 13.1 29.3 29.3 29.3 16.2 0 29.3-13.2 29.3-29.3z"/><path class="st3" d="M91.6 30.8c0-12.3-9.9-22.2-22.2-22.2-12.3 0-22.2 9.9-22.2 22.2C47.2 43 57.2 53 69.4 53c12.3 0 22.2-10 22.2-22.2z"/></svg>