<svg xmlns="http://www.w3.org/2000/svg" width="131.4" height="104.4"><style>.st0{stroke-linecap:round;fill:none;stroke:#010101;stroke-width:3;stroke-linejoin:round;stroke-miterlimit:10}</style><path class="st0" d="M99.4 31.3H126c2.1 0 3.9 1.7 3.9 3.9v11c0 2.1-1.7 3.9-3.9 3.9H5.4c-2.1 0-3.9-1.7-3.9-3.9v-11c0-2.1 1.7-3.9 3.9-3.9H32m10.5 0h46.4"/><path d="M124.8 50.1l-6.3 52.8H12.9L6.6 50.1m27.2 0v52.8m21.3-52.8v52.8m21.2-52.8v52.8m21.3-52.8v52.8m-89-35.6h114.1M10.8 85.7h109.8" fill="none" stroke="#010101" stroke-width="3" stroke-linejoin="round" stroke-miterlimit="10"/><path class="st0" d="M103.9 38.8l-22-37.3M27.5 38.8l22-37.3"/></svg>