<svg xmlns="http://www.w3.org/2000/svg" width="44" height="67"><path d="M10.5 27.9V15.1c0-4.7 5.2-8.6 11.5-8.6s11.5 3.8 11.5 8.6v12.8h6V15.1C39.5 7.3 31.7 1 22 1S4.5 7.3 4.5 15.1v12.8h6zm30.1 1.8H3.3C1.5 29.7 0 31.2 0 33v30.6C0 65.5 1.5 67 3.3 67h37.3c1.8 0 3.3-1.5 3.3-3.3V33.1c.1-1.9-1.4-3.4-3.3-3.4zM25.9 48.1v10.2c0 1.6-1.5 2.9-3.3 2.9h-1.1c-1.8 0-3.3-1.3-3.3-2.9V48.1a6.63 6.63 0 0 1-2.8-5.4 6.7 6.7 0 0 1 13.4 0c-.1 2.2-1.2 4.2-2.9 5.4z" fill="#010101"/><path d="M22 0C12.3 0 4.5 6.3 4.5 14.1v1C4.5 7.3 12.3 1 22 1s17.5 6.3 17.5 14.1v-1C39.5 6.3 31.7 0 22 0zm-3.9 59.3c0 1.6 1.5 2.9 3.3 2.9h1.1c1.8 0 3.3-1.3 3.3-2.9v-1c0 1.6-1.5 2.9-3.3 2.9h-1.1c-1.8 0-3.3-1.3-3.3-2.9v1zm7.8-11.2v1c1.7-1.2 2.8-3.2 2.8-5.4v-.5c-.2 2-1.3 3.8-2.8 4.9zm14.7-18.4H3.3C1.5 29.7 0 31.2 0 33v1c0-1.8 1.5-3.3 3.3-3.3h37.3c1.8 0 3.3 1.5 3.3 3.3v-1c.1-1.8-1.4-3.3-3.3-3.3zM18.1 49.1v-1c-1.6-1.1-2.6-2.9-2.8-4.9v.5c0 2.2 1.1 4.2 2.8 5.4z"/><path d="M33.5 14.1c0-4.7-5.2-8.6-11.5-8.6s-11.5 3.8-11.5 8.6v1c0-4.7 5.2-8.6 11.5-8.6s11.5 3.8 11.5 8.6v-1zm-29 12.8h6v1h-6zm29 0h6v1h-6zM22 35c-3.7 0-6.7 3-6.7 6.7v.5c.3-3.5 3.1-6.2 6.7-6.2s6.4 2.7 6.7 6.2v-.5c0-3.7-3-6.7-6.7-6.7zm18.6 31H3.3C1.5 66 0 64.5 0 62.7v1C0 65.5 1.5 67 3.3 67h37.3c1.8 0 3.3-1.5 3.3-3.3v-1c.1 1.8-1.4 3.3-3.3 3.3z" fill="#fff"/></svg>