<svg xmlns="http://www.w3.org/2000/svg" width="115" height="115.3"><path d="M97.1 16c8.8 8.9 15.2 19 17.3 33.2 2.3 15.6-2.1 29.9-8.8 40.1-9.1 13.8-26 26.7-49.3 26-7.7-.2-14.4-1.8-20.8-4.4-22.4-9.1-40-32.7-34.5-63.8 2.5-13.9 8.8-24.3 18-32.3C27.9 7 39.9.8 55.4 0c19.2-.8 31.5 7.3 41.7 16zM63.7 39.9c-8.6 3-16.7 5.8-25.8 9-3.2 1.1-10.7 2.7-11.1 6.5-.4 5.2 6.6 6.9 9.4 8.3 3.2 1.5 9.5 3.6 11.8 6 1.2 1.3 2.1 3.9 3 5.8.9 1.9 2.1 4 3 5.7 1.6 3.1 3.2 9.9 7.8 9.7 3.9-.2 5.4-7.4 6.9-11.8 3.5-10 6.5-18.8 9.7-27.7 1-2.7 5.5-10.9 3.5-14.5-1.1-1.9-3.7-1.5-4.8-1.4-4.6.7-9.1 2.9-13.4 4.4z" fill="#32a4dd"/></svg>