<svg xmlns="http://www.w3.org/2000/svg" width="110.1" height="119.1"><style>.st0{fill:#824a95}</style><path class="st0" d="M26.7 101.2C17.4 98 10.2 92.9 5.6 84 .3 73.8-.4 58.8.2 45.4 1.6 13.2 17.4 1.7 49.6.1c22.1-1 43.1 3.5 51.9 15.7 7.9 10.8 9.4 29.1 8.2 46.2-1.3 17-6.4 29.9-18.4 36.2-9.3 4.9-20 6.2-32.3 6.6-3.7.1-8.9-1.1-12.4-.3-2.8.7-5.3 5.5-7.6 8.2-1.7 1.9-5 7-9 6.3-5.5-.9-2.5-11.4-3.3-17.8zm66.1-15.1c12.8-12.7 12.6-54.3.3-67.3-13.7-14.4-60.8-13.6-74.8-.6-8.5 8-10.5 23.6-10 39.3.6 18.9 7.6 32.1 22.3 35.9v21.1c5.9-4.9 11.3-12.8 17.5-18.4 18.8.2 35.5-.8 44.7-10z"/><path class="st0" d="M33.7 25.2c4.6-.7 13.6 11.1 13.3 15.4-.3 3.5-5 3.7-5.7 7.2-1.2 6.4 6.6 13.7 10.6 16.6 1.7 1.2 5 3.4 7.8 3 3.2-.4 3.9-5.4 7.5-5.7 3.2-.2 6.4 2.7 8.8 4.5 1.8 1.4 6.2 4 6.6 6.6.6 4.7-5.3 10.9-9.4 11.5-5.8.9-13.2-4.8-17.5-7.5C43.6 69 33.4 57.9 27 43.6c-1.3-2.8-3-7.2-2.7-9.7.4-3.7 5.4-8.1 9.4-8.7zm47 29.2c-1.6-1.8-.9-4.2-1.2-6-1.9-12.8-10.7-21.7-25.6-22-.2-.2-.3-.5-.3-.9 17.6-.4 27.8 10.9 27.1 28.9z"/><path class="st0" d="M73.5 51.4C72.2 40.9 67.4 34.1 56 33.3v-.9c.2-.1.3-.3.6-.3 10.4.7 18.7 7.9 16.9 19.3z"/><path class="st0" d="M66.9 49.3c-1.5-1.6-1.1-3.8-2.1-5.4-1.3-2-3.2-2.8-6.6-3.3v-.9c5.3-.7 10 3.5 8.7 9.6z"/></svg>