<svg xmlns="http://www.w3.org/2000/svg" width="113.2" height="113.2"><style>.st0{fill:none;stroke:#010101;stroke-width:3;stroke-linecap:round;stroke-linejoin:round;stroke-miterlimit:10}</style><path class="st0" d="M1.5 56.6h110.2M56.6 1.5v55.1m-55.1 0c0-30.4 24.7-55.1 55.1-55.1s55.1 24.8 55.1 55.2M56.6 1.5S27.1 13.3 27.1 56.6M56.6 1.5s29.5 11.8 29.5 55.1M56.6 33c-30.4 0-38.3-16-38.3-16m76.6 0S87 33 56.6 33m0 78.7V56.6"/><path class="st0" d="M111.7 56.6c0 30.4-24.7 55.1-55.1 55.1S1.5 87.1 1.5 56.6m55.1 55.1s29.5-11.8 29.5-55.1m-29.5 55.1S27.1 99.9 27.1 56.6m67.8 39.6s-7.9-16-38.3-16m-38.3 16s7.9-16 38.3-16"/></svg>