<!-- Generator: Adobe Illustrator 22.0.1, SVG Export Plug-In  -->
<svg version="1.1"
	 xmlns="http://www.w3.org/2000/svg" xmlns:xlink="http://www.w3.org/1999/xlink" xmlns:a="http://ns.adobe.com/AdobeSVGViewerExtensions/3.0/"
	 x="0px" y="0px" width="137.7px" height="121.5px" viewBox="0 0 137.7 121.5" style="enable-background:new 0 0 137.7 121.5;"
	 xml:space="preserve">
<style type="text/css">
	.st0{fill:none;stroke:#919191;stroke-width:3;stroke-linecap:round;stroke-miterlimit:10;}
	.st1{fill:none;stroke:#919191;stroke-width:3;stroke-linecap:round;stroke-linejoin:round;stroke-miterlimit:10;}
	.st2{fill:#919191;}
	.st3{fill:none;stroke:#919191;stroke-width:3;stroke-miterlimit:10;}
</style>
<defs>
</defs>
<g>
	<g>
		<g>
			<g>
				<path class="st0" d="M63.4,96.8l-2.3-8.2c-2.1-7.4-7.3-13.5-14.2-16.7l-5.7-2.7c-3.4-1.6-5.9-4.5-6.9-8.1l-2.8-9.8l0.2-1.6
					c0.4-3.3-1.1-6.5-3.9-8.3l-0.1-0.1"/>
				<path class="st0" d="M35.1,80.5c-0.4,0.1-0.8,0.1-1.2,0.1c-6.6,0.6-13-2.4-17.1-7.7C8.4,62.2,2,68.9,2,68.9s6.9,8.3,11.6,16.5
					C17,91.3,22.5,95.7,29,97.4c0.4,0.1,0.8,0.2,1.2,0.3c4.3,0.9,7.9,3.7,9.9,7.5"/>
				<path class="st0" d="M8.3,66.9L5.4,53.9l8.4-25.8c0,0,4.8,1.2,3.6,8.6l-3.8,16.8L16.2,64"/>
				<path class="st0" d="M16.8,30.8l2.3-7c0,0,6.2,2.3,4.1,10.6l-3.5,18.2l2.8,9.8"/>
				<path class="st0" d="M23.7,30.8L24,31c2.9,2.2,4.4,5.8,3.7,9.4l-2,10.8l2.9,10"/>
			</g>
			<polyline class="st1" points="60.5,113.9 40.9,120 35.6,106.8 63.4,96.8 63.4,103.5 			"/>
			<line class="st0" x1="37.9" y1="112.5" x2="63.4" y2="103.5"/>
		</g>
	</g>
	<g>
		<g>
			<path class="st0" d="M74.4,96.8l2.3-8.2c2.1-7.4,7.3-13.5,14.2-16.7l5.7-2.7c3.4-1.6,5.9-4.5,6.9-8.1l2.8-9.8l-0.2-1.6
				c-0.4-3.3,1.1-6.5,3.9-8.3l0.1-0.1"/>
			<path class="st0" d="M102.6,80.5c0.4,0.1,0.8,0.1,1.2,0.1c6.6,0.6,13-2.4,17.1-7.7c8.4-10.8,14.8-4,14.8-4s-6.9,8.3-11.6,16.5
				c-3.4,5.8-8.8,10.3-15.4,11.9c-0.4,0.1-0.8,0.2-1.2,0.3c-4.3,0.9-7.9,3.7-9.9,7.5"/>
			<path class="st0" d="M129.5,66.9l2.9-13.1l-8.4-25.8c0,0-4.8,1.2-3.6,8.6l3.8,16.8L121.6,64"/>
			<path class="st0" d="M120.9,30.8l-2.3-7c0,0-6.2,2.3-4.1,10.6l3.5,18.2l-2.8,9.8"/>
			<path class="st0" d="M114.1,30.8l-0.3,0.2c-2.9,2.2-4.4,5.8-3.7,9.4l2,10.8l-2.9,10"/>
		</g>
		<polyline class="st1" points="77.2,113.9 96.9,120 102.1,106.8 74.4,96.8 74.4,103.5 		"/>
		<line class="st0" x1="99.9" y1="112.5" x2="74.4" y2="103.5"/>
	</g>
	<g>
		<path class="st2" d="M76.3,25.2v-0.4c0-3.4-2.4-6.2-5.6-6.7v-1.8h-2.4v1.8c-3.2,0.6-5.6,3.4-5.6,6.7c0,2.9,1.9,5.4,5,6.6
			c0.4,0.2,0.8,0.3,1.3,0.4c0.7,0.2,1.5,0.5,2.1,0.8c1.8,0.9,2.9,2.3,2.9,4.1c0,2.4-2,4.4-4.4,4.4c-2.4,0-4.4-1.9-4.4-4.3l0-0.4
			h-2.4l0,0.4c0,3.3,2.5,6.1,5.6,6.6v1.8h2.4v-1.8c3.2-0.6,5.6-3.4,5.6-6.7c0-1.5-0.5-2.9-1.6-4.3c-1-1.3-2.5-1.9-3.7-2.4
			c-0.3-0.1-0.7-0.2-1-0.3c-1.1-0.4-2.3-0.8-3.2-1.4c-1-0.8-1.7-2.1-1.7-3.4c0-2.4,2-4.4,4.4-4.4c2.4,0,4.4,2,4.4,4.4v0.4H76.3z"/>
		<path class="st3" d="M98.7,30.8c0-16.2-13.1-29.3-29.3-29.3c-16.2,0-29.3,13.1-29.3,29.3c0,16.2,13.1,29.3,29.3,29.3
			C85.6,60.1,98.7,46.9,98.7,30.8z"/>
		<path class="st3" d="M91.6,30.8c0-12.3-9.9-22.2-22.2-22.2c-12.3,0-22.2,9.9-22.2,22.2C47.2,43,57.2,53,69.4,53
			C81.7,53,91.6,43,91.6,30.8z"/>
	</g>
</g>
</svg>

