<!-- Generator: Adobe Illustrator 22.0.1, SVG Export Plug-In  -->
<svg version="1.1"
	 xmlns="http://www.w3.org/2000/svg" xmlns:xlink="http://www.w3.org/1999/xlink" xmlns:a="http://ns.adobe.com/AdobeSVGViewerExtensions/3.0/"
	 x="0px" y="0px" width="159.4px" height="94.2px" viewBox="0 0 159.4 94.2" style="enable-background:new 0 0 159.4 94.2;"
	 xml:space="preserve">
<style type="text/css">
	.st0{fill:none;stroke:#919191;stroke-width:3;stroke-linecap:round;stroke-linejoin:round;stroke-miterlimit:10;}
	.st1{fill:none;stroke:#919191;stroke-width:3;stroke-miterlimit:10;}
</style>
<defs>
</defs>
<g>
	<polyline id="XMLID_3_" class="st0" points="86,27.9 51,1.5 1.5,38.7 	"/>
	<line id="XMLID_2_" class="st0" x1="10.8" y1="31.7" x2="10.8" y2="92.7"/>
	<rect id="XMLID_1_" x="37.1" y="44.8" class="st1" width="27.7" height="27.7"/>
	<line class="st0" x1="10.8" y1="92.7" x2="64.8" y2="92.7"/>
	<path class="st0" d="M69.9,28.2C61,21.5,51,14,51,14L32.1,28.2"/>
	<path class="st0" d="M85.1,82.4c0-5.7,4.6-10.3,10.3-10.3s10.3,4.6,10.3,10.3s-4.6,10.3-10.3,10.3S85.1,88,85.1,82.4z"/>
	<path class="st0" d="M98.9,82.4c0,1.9-1.5,3.4-3.4,3.4c-1.9,0-3.4-1.5-3.4-3.4"/>
	<path class="st0" d="M85.1,82.9L85.1,82.9c-3.8,0-6.9-3-7-6.8c-0.1-5.5,0.9-13,6.3-18c1.6-1.4,3.4-2.5,5.4-3.4
		c3.9-1.6,14.8-6.8,24.4-18.1c6.3-7.4,15.4-12,25.1-12.3c0.4,0,0.8,0,1.1,0v22.5"/>
	<path class="st0" d="M85.1,82.9L85.1,82.9c-3.8,0-6.9-3-7-6.8c-0.1-5.5,0.9-13,6.3-18c1.6-1.4,3.4-2.5,5.4-3.4
		c3.9-1.6,14.8-6.8,24.4-18.1c6.3-7.4,15.4-12,25.1-12.3c0.4,0,0.8,0,1.1,0v58"/>
	<path class="st0" d="M140.5,24.4V15c0-1.6,1.3-2.8,2.8-2.8h14.6"/>
	<line class="st0" x1="157.9" y1="82.4" x2="105.7" y2="82.4"/>
	<polyline class="st0" points="124.3,37.5 132.5,37.5 132.5,55 107.9,55 	"/>
	<line class="st0" x1="132.5" y1="55" x2="132.5" y2="73.3"/>
</g>
</svg>

