<svg version="1.1"
                     xmlns="http://www.w3.org/2000/svg" xmlns:xlink="http://www.w3.org/1999/xlink" xmlns:a="http://ns.adobe.com/AdobeSVGViewerExtensions/3.0/"
                     x="0px" y="0px" width="131.4px" height="104.4px" viewBox="0 0 131.4 104.4" style="enable-background:new 0 0 131.4 104.4;"
                     xml:space="preserve">
<style type="text/css">
    .st0{fill:none;stroke:#010101;stroke-width:3;stroke-linecap:round;stroke-linejoin:round;stroke-miterlimit:10;}
    .st1{fill:none;stroke:#010101;stroke-width:3;stroke-linejoin:round;stroke-miterlimit:10;}
</style>
                    <defs>
                    </defs>
                    <g>
                        <path class="st0" d="M99.4,31.3H126c2.1,0,3.9,1.7,3.9,3.9v11c0,2.1-1.7,3.9-3.9,3.9H5.4c-2.1,0-3.9-1.7-3.9-3.9v-11
		c0-2.1,1.7-3.9,3.9-3.9h26.6"/>
                        <line class="st0" x1="42.5" y1="31.3" x2="88.9" y2="31.3"/>
                        <polyline class="st1" points="124.8,50.1 118.5,102.9 65.7,102.9 12.9,102.9 6.6,50.1 	"/>
                        <g>
                            <line class="st1" x1="33.8" y1="50.1" x2="33.8" y2="102.9"/>
                            <line class="st1" x1="55.1" y1="50.1" x2="55.1" y2="102.9"/>
                            <line class="st1" x1="76.3" y1="50.1" x2="76.3" y2="102.9"/>
                            <line class="st1" x1="97.6" y1="50.1" x2="97.6" y2="102.9"/>
                        </g>
                        <g>
                            <line class="st1" x1="8.6" y1="67.3" x2="122.7" y2="67.3"/>
                            <line class="st1" x1="10.8" y1="85.7" x2="120.6" y2="85.7"/>
                        </g>
                        <line class="st0" x1="103.9" y1="38.8" x2="81.9" y2="1.5"/>
                        <line class="st0" x1="27.5" y1="38.8" x2="49.5" y2="1.5"/>
                    </g>
</svg>
