<!-- Generator: Adobe Illustrator 22.0.1, SVG Export Plug-In  -->
<svg version="1.1"
	 xmlns="http://www.w3.org/2000/svg" xmlns:xlink="http://www.w3.org/1999/xlink" xmlns:a="http://ns.adobe.com/AdobeSVGViewerExtensions/3.0/"
	 x="0px" y="0px" width="44px" height="67px" viewBox="0 0 44 67" style="enable-background:new 0 0 44 67;" xml:space="preserve">
<style type="text/css">
	.st0{fill:#010101;}
	.st1{fill:#FFFFFF;}
</style>
<defs>
</defs>
<g>
	<g>
		<path class="st0" d="M10.5,27.9V15.1c0-4.7,5.2-8.6,11.5-8.6c6.3,0,11.5,3.8,11.5,8.6v12.8h6V15.1C39.5,7.3,31.7,1,22,1
			C12.3,1,4.5,7.3,4.5,15.1v12.8H10.5z"/>
		<path class="st0" d="M40.6,29.7H3.3c-1.8,0-3.3,1.5-3.3,3.3v30.6C0,65.5,1.5,67,3.3,67h37.3c1.8,0,3.3-1.5,3.3-3.3V33.1
			C44,31.2,42.5,29.7,40.6,29.7z M25.9,48.1v10.2c0,1.6-1.5,2.9-3.3,2.9h-1.1c-1.8,0-3.3-1.3-3.3-2.9V48.1c-1.7-1.2-2.8-3.2-2.8-5.4
			c0-3.7,3-6.7,6.7-6.7c3.7,0,6.7,3,6.7,6.7C28.7,44.9,27.6,46.9,25.9,48.1z"/>
	</g>
	<g>
		<path d="M22,0C12.3,0,4.5,6.3,4.5,14.1v1C4.5,7.3,12.3,1,22,1c9.7,0,17.5,6.3,17.5,14.1v-1C39.5,6.3,31.7,0,22,0z"/>
		<g>
			<path d="M18.1,59.3c0,1.6,1.5,2.9,3.3,2.9h1.1c1.8,0,3.3-1.3,3.3-2.9v-1c0,1.6-1.5,2.9-3.3,2.9h-1.1c-1.8,0-3.3-1.3-3.3-2.9V59.3
				z"/>
			<path d="M25.9,48.1v1c1.7-1.2,2.8-3.2,2.8-5.4c0-0.2,0-0.3,0-0.5C28.5,45.2,27.4,47,25.9,48.1z"/>
			<path d="M40.6,29.7H3.3c-1.8,0-3.3,1.5-3.3,3.3v1c0-1.8,1.5-3.3,3.3-3.3h37.3c1.8,0,3.3,1.5,3.3,3.3v-1
				C44,31.2,42.5,29.7,40.6,29.7z"/>
			<path d="M18.1,49.1v-1c-1.6-1.1-2.6-2.9-2.8-4.9c0,0.2,0,0.3,0,0.5C15.3,45.9,16.4,47.9,18.1,49.1z"/>
		</g>
	</g>
	<g>
		<g>
			<path class="st1" d="M33.5,14.1c0-4.7-5.2-8.6-11.5-8.6c-6.3,0-11.5,3.8-11.5,8.6v1c0-4.7,5.2-8.6,11.5-8.6
				c6.3,0,11.5,3.8,11.5,8.6V14.1z"/>
			<rect x="4.5" y="26.9" class="st1" width="6" height="1"/>
			<rect x="33.5" y="26.9" class="st1" width="6" height="1"/>
		</g>
		<g>
			<path class="st1" d="M22,35c-3.7,0-6.7,3-6.7,6.7c0,0.2,0,0.3,0,0.5c0.3-3.5,3.1-6.2,6.7-6.2s6.4,2.7,6.7,6.2c0-0.2,0-0.3,0-0.5
				C28.7,38,25.7,35,22,35z"/>
			<path class="st1" d="M40.6,66H3.3C1.5,66,0,64.5,0,62.7v1C0,65.5,1.5,67,3.3,67h37.3c1.8,0,3.3-1.5,3.3-3.3v-1
				C44,64.5,42.5,66,40.6,66z"/>
		</g>
	</g>
</g>
</svg>

