<!-- Generator: Adobe Illustrator 22.0.1, SVG Export Plug-In  -->
<svg version="1.1"
     xmlns="http://www.w3.org/2000/svg" xmlns:xlink="http://www.w3.org/1999/xlink" xmlns:a="http://ns.adobe.com/AdobeSVGViewerExtensions/3.0/"
     x="0px" y="0px" width="115px" height="115.3px" viewBox="0 0 115 115.3" style="enable-background:new 0 0 115 115.3;"
     xml:space="preserve">
<style type="text/css">
	.st0{fill:#32A4DD;}
</style>
    <defs>
</defs>
    <path class="st0" d="M97.1,16c8.8,8.9,15.2,19,17.3,33.2c2.3,15.6-2.1,29.9-8.8,40.1c-9.1,13.8-26,26.7-49.3,26
	c-7.7-0.2-14.4-1.8-20.8-4.4C13.1,101.8-4.5,78.2,1,47.1c2.5-13.9,8.8-24.3,18-32.3c8.9-7.8,20.9-14,36.4-14.8
	C74.6-0.8,86.9,7.3,97.1,16z M63.7,39.9c-8.6,3-16.7,5.8-25.8,9c-3.2,1.1-10.7,2.7-11.1,6.5c-0.4,5.2,6.6,6.9,9.4,8.3
	c3.2,1.5,9.5,3.6,11.8,6c1.2,1.3,2.1,3.9,3,5.8c0.9,1.9,2.1,4,3,5.7c1.6,3.1,3.2,9.9,7.8,9.7c3.9-0.2,5.4-7.4,6.9-11.8
	c3.5-10,6.5-18.8,9.7-27.7c1-2.7,5.5-10.9,3.5-14.5c-1.1-1.9-3.7-1.5-4.8-1.4C72.5,36.2,68,38.4,63.7,39.9z"/>
</svg>

