<!-- Generator: Adobe Illustrator 22.0.1, SVG Export Plug-In  -->
<svg version="1.1"
     xmlns="http://www.w3.org/2000/svg" xmlns:xlink="http://www.w3.org/1999/xlink" xmlns:a="http://ns.adobe.com/AdobeSVGViewerExtensions/3.0/"
     x="0px" y="0px" width="110.1px" height="119.1px" viewBox="0 0 110.1 119.1" style="enable-background:new 0 0 110.1 119.1;"
     xml:space="preserve">
<style type="text/css">
	.st0{fill:#824A95;}
</style>
    <defs>
</defs>
    <g>
	<path class="st0" d="M26.7,101.2C17.4,98,10.2,92.9,5.6,84c-5.3-10.2-6-25.2-5.4-38.6C1.6,13.2,17.4,1.7,49.6,0.1
		c22.1-1,43.1,3.5,51.9,15.7c7.9,10.8,9.4,29.1,8.2,46.2c-1.3,17-6.4,29.9-18.4,36.2c-9.3,4.9-20,6.2-32.3,6.6
		c-3.7,0.1-8.9-1.1-12.4-0.3c-2.8,0.7-5.3,5.5-7.6,8.2c-1.7,1.9-5,7-9,6.3C24.5,118.1,27.5,107.6,26.7,101.2z M92.8,86.1
		c12.8-12.7,12.6-54.3,0.3-67.3C79.4,4.4,32.3,5.2,18.3,18.2C9.8,26.2,7.8,41.8,8.3,57.5c0.6,18.9,7.6,32.1,22.3,35.9
		c0,7,0,14.1,0,21.1c5.9-4.9,11.3-12.8,17.5-18.4C66.9,96.3,83.6,95.3,92.8,86.1z"/>
        <path class="st0" d="M33.7,25.2c4.6-0.7,13.6,11.1,13.3,15.4c-0.3,3.5-5,3.7-5.7,7.2c-1.2,6.4,6.6,13.7,10.6,16.6
		c1.7,1.2,5,3.4,7.8,3c3.2-0.4,3.9-5.4,7.5-5.7c3.2-0.2,6.4,2.7,8.8,4.5c1.8,1.4,6.2,4,6.6,6.6c0.6,4.7-5.3,10.9-9.4,11.5
		c-5.8,0.9-13.2-4.8-17.5-7.5C43.6,69,33.4,57.9,27,43.6c-1.3-2.8-3-7.2-2.7-9.7C24.7,30.2,29.7,25.8,33.7,25.2z"/>
        <path class="st0" d="M80.7,54.4c-1.6-1.8-0.9-4.2-1.2-6c-1.9-12.8-10.7-21.7-25.6-22c-0.2-0.2-0.3-0.5-0.3-0.9
		C71.2,25.1,81.4,36.4,80.7,54.4z"/>
        <path class="st0" d="M73.5,51.4C72.2,40.9,67.4,34.1,56,33.3c0-0.3,0-0.6,0-0.9c0.2-0.1,0.3-0.3,0.6-0.3C67,32.8,75.3,40,73.5,51.4
		z"/>
        <path class="st0" d="M66.9,49.3c-1.5-1.6-1.1-3.8-2.1-5.4c-1.3-2-3.2-2.8-6.6-3.3c0-0.3,0-0.6,0-0.9C63.5,39,68.2,43.2,66.9,49.3z"
        />
</g>
</svg>

