<!-- Generator: Adobe Illustrator 22.0.1, SVG Export Plug-In  -->
<svg version="1.1"
     xmlns="http://www.w3.org/2000/svg" xmlns:xlink="http://www.w3.org/1999/xlink" xmlns:a="http://ns.adobe.com/AdobeSVGViewerExtensions/3.0/"
     x="0px" y="0px" width="122.7px" height="121.7px" viewBox="0 0 122.7 121.7" style="enable-background:new 0 0 122.7 121.7;"
     xml:space="preserve">
<style type="text/css">
	.st0{fill:#4EA734;}
</style>
    <defs>
</defs>
    <path class="st0" d="M27.6,111.9c-7.8,2.4-15.3,5.1-23.4,7.3c2.6-7.2,4.7-14.9,7.6-21.9C6.3,88.4,1.2,79.2,0.2,67.3
	c-1-12.6,1.6-24.6,6.7-34.3C16,15.6,34.4,1.7,58.2,0.1c22.6-1.4,39.7,9,50.7,22.5c11,13.3,17.7,34.7,11.3,56.2
	c-5.2,17.3-18.6,31.3-34.6,38.3C67.7,124.9,41,122.6,27.6,111.9z M90.1,73.3c-2.8-1.4-7-4.4-9.7-3.9c-3.8,0.6-5.6,9-9.4,9.4
	c-2.1,0.2-5.9-2.4-8.5-4c-6.4-3.9-9.4-6.6-13.4-11.5c-1.4-1.7-5.1-5.5-4.9-7.9c0.2-3.2,5.9-4.9,6.1-9.1c0.1-3-2.6-6.6-3.6-9.1
	c-1.4-3.3-1.7-6.2-4.3-8.8c-8.3-2.5-13.3,3.3-15.5,8.8c-4.1,10.6,2,20.7,6.7,27.3c6.6,9.4,16.2,19.1,26.7,24.3
	c5.8,2.8,13.2,5.9,19.1,6.4c10.5,0.8,20-5.8,19.2-17C96.5,76,93.5,75,90.1,73.3z"/>
</svg>

