<!-- Generator: Adobe Illustrator 22.0.1, SVG Export Plug-In  -->
<svg version="1.1"
     xmlns="http://www.w3.org/2000/svg" xmlns:xlink="http://www.w3.org/1999/xlink" xmlns:a="http://ns.adobe.com/AdobeSVGViewerExtensions/3.0/"
     x="0px" y="0px" width="113.2px" height="113.2px" viewBox="0 0 113.2 113.2" style="enable-background:new 0 0 113.2 113.2;"
     xml:space="preserve">
<style type="text/css">
	.st0{fill:none;stroke:#010101;stroke-width:3;stroke-linecap:round;stroke-linejoin:round;stroke-miterlimit:10;}
	.st1{fill:#010101;}
</style>
    <defs>
</defs>
    <g>
	<line class="st0" x1="1.5" y1="56.6" x2="111.7" y2="56.6"/>
        <line class="st0" x1="56.6" y1="1.5" x2="56.6" y2="56.6"/>
        <path class="st0" d="M1.5,56.6c0-30.4,24.7-55.1,55.1-55.1s55.1,24.8,55.1,55.2"/>
        <path class="st0" d="M56.6,1.5c0,0-29.5,11.8-29.5,55.1"/>
        <path class="st0" d="M27.1,56.6"/>
        <path class="st0" d="M56.6,1.5c0,0,29.5,11.8,29.5,55.1"/>
        <path class="st0" d="M86.1,56.6"/>
        <path class="st0" d="M56.6,33c-30.4,0-38.3-16-38.3-16"/>
        <path class="st0" d="M94.9,17c0,0-7.9,16-38.3,16"/>
        <path class="st1" d="M80.4,28.2"/>
        <line class="st0" x1="56.6" y1="111.7" x2="56.6" y2="56.6"/>
        <path class="st0" d="M111.7,56.6c0,30.4-24.7,55.1-55.1,55.1S1.5,87.1,1.5,56.6"/>
        <path class="st0" d="M56.6,111.7c0,0,29.5-11.8,29.5-55.1"/>
        <path class="st0" d="M86.1,56.6"/>
        <path class="st0" d="M56.6,111.7c0,0-29.5-11.8-29.5-55.1"/>
        <path class="st0" d="M27.1,56.6"/>
        <path class="st0" d="M94.9,96.2c0,0-7.9-16-38.3-16"/>
        <path class="st0" d="M18.3,96.2c0,0,7.9-16,38.3-16"/>
        <path class="st1" d="M32.8,85.1"/>
</g>
</svg>

