<!-- Generator: Adobe Illustrator 22.0.1, SVG Export Plug-In  -->
<svg version="1.1"
	 xmlns="http://www.w3.org/2000/svg" xmlns:xlink="http://www.w3.org/1999/xlink" xmlns:a="http://ns.adobe.com/AdobeSVGViewerExtensions/3.0/"
	 x="0px" y="0px" width="137.7px" height="153.6px" viewBox="0 0 137.7 153.6" style="enable-background:new 0 0 137.7 153.6;"
	 xml:space="preserve">
<style type="text/css">
	.st0{fill:none;stroke:#010101;stroke-width:3;stroke-miterlimit:10;}
	.st1{fill:none;stroke:#010101;stroke-width:3;stroke-linecap:round;stroke-miterlimit:10;}
	.st2{fill:none;stroke:#010101;stroke-width:3;stroke-linecap:round;stroke-linejoin:round;stroke-miterlimit:10;}
</style>
<defs>
</defs>
<g id="XMLID_1_">
	<path id="XMLID_2_" class="st0" d="M84,82.5H52.7c-2.9,0-5.3-2.4-5.3-5.3V6.8c0-2.9,2.4-5.3,5.3-5.3H84c2.9,0,5.3,2.4,5.3,5.3v70.4
		C89.3,80.1,86.9,82.5,84,82.5z"/>
</g>
<g>
	<g>
		<g>
			<path class="st1" d="M63.4,128.9l-2.3-8.2c-2.1-7.4-7.3-13.5-14.2-16.7l-5.7-2.7c-3.4-1.6-5.9-4.5-6.9-8.1l-2.8-9.8l0.2-1.6
				c0.4-3.3-1.1-6.5-3.9-8.3l-0.1-0.1"/>
			<path class="st1" d="M35.1,112.6c-0.4,0.1-0.8,0.1-1.2,0.1c-6.6,0.6-13-2.4-17.1-7.7c-8.4-10.8-14.8-4-14.8-4s6.9,8.3,11.6,16.5
				c3.4,5.8,8.8,10.3,15.4,11.9c0.4,0.1,0.8,0.2,1.2,0.3c4.3,0.9,7.9,3.7,9.9,7.5"/>
			<path class="st1" d="M8.3,99.1L5.4,86l8.4-25.8c0,0,4.8,1.2,3.6,8.6l-3.8,16.8l2.6,10.6"/>
			<path class="st1" d="M16.8,63l2.3-7c0,0,6.2,2.3,4.1,10.6l-3.5,18.2l2.8,9.8"/>
			<path class="st1" d="M23.7,62.9l0.3,0.2c2.9,2.2,4.4,5.8,3.7,9.4l-2,10.8l2.9,10"/>
		</g>
		<polyline class="st2" points="60.5,146.1 40.9,152.1 35.6,138.9 63.4,128.9 63.4,135.6 		"/>
		<line class="st1" x1="37.9" y1="144.6" x2="63.4" y2="135.6"/>
	</g>
</g>
<g>
	<g>
		<path class="st1" d="M74.4,128.9l2.3-8.2c2.1-7.4,7.3-13.5,14.2-16.7l5.7-2.7c3.4-1.6,5.9-4.5,6.9-8.1l2.8-9.8l-0.2-1.6
			c-0.4-3.3,1.1-6.5,3.9-8.3l0.1-0.1"/>
		<path class="st1" d="M102.6,112.6c0.4,0.1,0.8,0.1,1.2,0.1c6.6,0.6,13-2.4,17.1-7.7c8.4-10.8,14.8-4,14.8-4s-6.9,8.3-11.6,16.5
			c-3.4,5.8-8.8,10.3-15.4,11.9c-0.4,0.1-0.8,0.2-1.2,0.3c-4.3,0.9-7.9,3.7-9.9,7.5"/>
		<path class="st1" d="M129.5,99.1l2.9-13.1l-8.4-25.8c0,0-4.8,1.2-3.6,8.6l3.8,16.8l-2.6,10.6"/>
		<path class="st1" d="M120.9,63l-2.3-7c0,0-6.2,2.3-4.1,10.6l3.5,18.2l-2.8,9.8"/>
		<path class="st1" d="M114.1,62.9l-0.3,0.2c-2.9,2.2-4.4,5.8-3.7,9.4l2,10.8l-2.9,10"/>
	</g>
	<polyline class="st2" points="77.2,146.1 96.9,152.1 102.1,138.9 74.4,128.9 74.4,135.6 	"/>
	<line class="st1" x1="99.9" y1="144.6" x2="74.4" y2="135.6"/>
</g>
</svg>

