<!-- Generator: Adobe Illustrator 22.0.1, SVG Export Plug-In  -->
<svg version="1.1"
	 xmlns="http://www.w3.org/2000/svg" xmlns:xlink="http://www.w3.org/1999/xlink" xmlns:a="http://ns.adobe.com/AdobeSVGViewerExtensions/3.0/"
	 x="0px" y="0px" width="119.4px" height="113.1px" viewBox="0 0 119.4 113.1" style="enable-background:new 0 0 119.4 113.1;"
	 xml:space="preserve">
<style type="text/css">
	.st0{fill:none;stroke:#010101;stroke-width:3;stroke-linecap:round;stroke-miterlimit:10;}
</style>
<defs>
</defs>
<g>
	<g>
		<path class="st0" d="M73.2,83.4H49.8c-0.1-1.3-0.2-5.2-0.2-5.5c0-0.3,0-0.7,0-1h0.7c3.1,0,5.7-2.5,5.7-5.7c0-3.1-2.5-5.6-5.6-5.7
			c0.7-5.4,1.8-10.7,3.3-16c1-3.7,2.2-7.3,3.6-10.8c0.7-1.9,1.5-3.6,2.3-5.4c1.1-2.2,2-4.5,2.6-7c1.1-4.6,0.4-9.4-1.7-13.5
			C57.1,5.9,49.9,1.5,42.2,1.5c-7.7,0-14.9,4.4-18.4,11.3c-2.1,4.2-2.7,9-1.7,13.5c0.6,2.4,1.5,4.7,2.6,7c0.9,1.8,1.6,3.6,2.3,5.4
			c1.3,3.6,2.5,7.2,3.6,10.8c1.5,5.2,2.6,10.6,3.3,16c-3.1,0-5.6,2.6-5.6,5.7c0,3.1,2.5,5.7,5.7,5.7h0.7c0,0.3,0,0.7,0,1
			c0,0.3-0.1,4.2-0.2,5.5H11.1c-5.3,0-9.6,4.3-9.6,9.6v11.1h81.4V93C82.9,87.7,78.5,83.4,73.2,83.4z"/>
		<line class="st0" x1="8.2" y1="111.6" x2="76.1" y2="111.6"/>
		<path class="st0" d="M42.2,8.4c-7.5,0-13.7,6.1-13.7,13.7"/>
	</g>
	<g>
		<circle class="st0" cx="95.6" cy="48.6" r="22.4"/>
		<line class="st0" x1="87" y1="57.2" x2="104.2" y2="40"/>
		<line class="st0" x1="96.2" y1="59.8" x2="106.8" y2="49.2"/>
		<line class="st0" x1="94.9" y1="37.4" x2="84.4" y2="47.9"/>
	</g>
</g>
</svg>
