<svg xmlns="http://www.w3.org/2000/svg" width="119.4" height="113.1"><style>.st0{fill:none;stroke:#010101;stroke-width:3;stroke-linecap:round;stroke-miterlimit:10}</style><path class="st0" d="M73.2 83.4H49.8c-.1-1.3-.2-5.2-.2-5.5v-1h.7c3.1 0 5.7-2.5 5.7-5.7 0-3.1-2.5-5.6-5.6-5.7.7-5.4 1.8-10.7 3.3-16 1-3.7 2.2-7.3 3.6-10.8.7-1.9 1.5-3.6 2.3-5.4 1.1-2.2 2-4.5 2.6-7 1.1-4.6.4-9.4-1.7-13.5C57.1 5.9 49.9 1.5 42.2 1.5c-7.7 0-14.9 4.4-18.4 11.3-2.1 4.2-2.7 9-1.7 13.5.6 2.4 1.5 4.7 2.6 7 .9 1.8 1.6 3.6 2.3 5.4 1.3 3.6 2.5 7.2 3.6 10.8 1.5 5.2 2.6 10.6 3.3 16-3.1 0-5.6 2.6-5.6 5.7s2.5 5.7 5.7 5.7h.7v1c0 .3-.1 4.2-.2 5.5H11.1c-5.3 0-9.6 4.3-9.6 9.6v11.1h81.4V93c0-5.3-4.4-9.6-9.7-9.6zm-65 28.2h67.9M42.2 8.4c-7.5 0-13.7 6.1-13.7 13.7"/><circle class="st0" cx="95.6" cy="48.6" r="22.4"/><path class="st0" d="M87 57.2L104.2 40m-8 19.8l10.6-10.6M94.9 37.4L84.4 47.9"/></svg>