<svg xmlns="http://www.w3.org/2000/svg" width="137.7" height="153.6"><style>.st1,.st2{fill:none;stroke:#010101;stroke-width:3;stroke-linecap:round;stroke-miterlimit:10}.st2{stroke-linejoin:round}</style><g id="XMLID_1_"><path id="XMLID_2_" d="M84 82.5H52.7c-2.9 0-5.3-2.4-5.3-5.3V6.8c0-2.9 2.4-5.3 5.3-5.3H84c2.9 0 5.3 2.4 5.3 5.3v70.4c0 2.9-2.4 5.3-5.3 5.3z" fill="none" stroke="#010101" stroke-width="3" stroke-miterlimit="10"/></g><path class="st1" d="M63.4 128.9l-2.3-8.2c-2.1-7.4-7.3-13.5-14.2-16.7l-5.7-2.7c-3.4-1.6-5.9-4.5-6.9-8.1l-2.8-9.8.2-1.6c.4-3.3-1.1-6.5-3.9-8.3l-.1-.1m7.4 39.2c-.4.1-.8.1-1.2.1-6.6.6-13-2.4-17.1-7.7C8.4 94.2 2 101 2 101s6.9 8.3 11.6 16.5c3.4 5.8 8.8 10.3 15.4 11.9l1.2.3c4.3.9 7.9 3.7 9.9 7.5"/><path class="st1" d="M8.3 99.1L5.4 86l8.4-25.8s4.8 1.2 3.6 8.6l-3.8 16.8 2.6 10.6"/><path class="st1" d="M16.8 63l2.3-7s6.2 2.3 4.1 10.6l-3.5 18.2 2.8 9.8"/><path class="st1" d="M23.7 62.9l.3.2c2.9 2.2 4.4 5.8 3.7 9.4l-2 10.8 2.9 10"/><path class="st2" d="M60.5 146.1l-19.6 6-5.3-13.2 27.8-10v6.7"/><path class="st1" d="M37.9 144.6l25.5-9m11-6.7l2.3-8.2c2.1-7.4 7.3-13.5 14.2-16.7l5.7-2.7c3.4-1.6 5.9-4.5 6.9-8.1l2.8-9.8-.2-1.6c-.4-3.3 1.1-6.5 3.9-8.3l.1-.1m-7.5 39.2c.4.1.8.1 1.2.1 6.6.6 13-2.4 17.1-7.7 8.4-10.8 14.8-4 14.8-4s-6.9 8.3-11.6 16.5c-3.4 5.8-8.8 10.3-15.4 11.9l-1.2.3c-4.3.9-7.9 3.7-9.9 7.5"/><path class="st1" d="M129.5 99.1l2.9-13.1-8.4-25.8s-4.8 1.2-3.6 8.6l3.8 16.8-2.6 10.6"/><path class="st1" d="M120.9 63l-2.3-7s-6.2 2.3-4.1 10.6l3.5 18.2-2.8 9.8"/><path class="st1" d="M114.1 62.9l-.3.2c-2.9 2.2-4.4 5.8-3.7 9.4l2 10.8-2.9 10"/><path class="st2" d="M77.2 146.1l19.7 6 5.2-13.2-27.7-10v6.7"/><path class="st1" d="M99.9 144.6l-25.5-9"/></svg>