<svg xmlns="http://www.w3.org/2000/svg" width="159.4" height="94.2"><style>.st0{fill:none;stroke:#010101;stroke-width:3;stroke-linecap:round;stroke-linejoin:round;stroke-miterlimit:10}</style><path id="XMLID_3_" class="st0" d="M86 27.9L51 1.5 1.5 38.7"/><path id="XMLID_2_" class="st0" d="M10.8 31.7v61"/><path id="XMLID_1_" fill="none" stroke="#010101" stroke-width="3" stroke-miterlimit="10" d="M37.1 44.8h27.7v27.7H37.1z"/><path class="st0" d="M10.8 92.7h54m5.1-64.5C61 21.5 51 14 51 14L32.1 28.2m53 54.2c0-5.7 4.6-10.3 10.3-10.3s10.3 4.6 10.3 10.3-4.6 10.3-10.3 10.3S85.1 88 85.1 82.4z"/><path class="st0" d="M98.9 82.4c0 1.9-1.5 3.4-3.4 3.4s-3.4-1.5-3.4-3.4m-7 .5c-3.8 0-6.9-3-7-6.8-.1-5.5.9-13 6.3-18 1.6-1.4 3.4-2.5 5.4-3.4 3.9-1.6 14.8-6.8 24.4-18.1 6.3-7.4 15.4-12 25.1-12.3h1.1v22.5"/><path class="st0" d="M85.1 82.9c-3.8 0-6.9-3-7-6.8-.1-5.5.9-13 6.3-18 1.6-1.4 3.4-2.5 5.4-3.4 3.9-1.6 14.8-6.8 24.4-18.1 6.3-7.4 15.4-12 25.1-12.3h1.1v58m.1-57.9V15c0-1.6 1.3-2.8 2.8-2.8h14.6m0 70.2h-52.2"/><path class="st0" d="M124.3 37.5h8.2V55h-24.6m24.6 0v18.3"/></svg>