<!-- Generator: Adobe Illustrator 22.0.1, SVG Export Plug-In  -->
<svg version="1.1"
     xmlns="http://www.w3.org/2000/svg" xmlns:xlink="http://www.w3.org/1999/xlink" xmlns:a="http://ns.adobe.com/AdobeSVGViewerExtensions/3.0/"
     x="0px" y="0px" width="82.3px" height="83.4px" viewBox="0 0 82.3 83.4" style="enable-background:new 0 0 82.3 83.4;"
     xml:space="preserve">
<style type="text/css">
	.st0{fill-rule:evenodd;clip-rule:evenodd;fill:#231F20;}
</style>
    <defs>
</defs>
    <g>
	<path class="st0" d="M25.8,57.3c-2.2-2.2-4.1-4.7-5.5-7.4L2,68.2c-2.5,2.5-2.6,6.3-0.3,8.6l4.9,4.9c2.3,2.3,6.1,2.1,8.6-0.3
		L33.6,63C30.8,61.5,28.2,59.6,25.8,57.3z"/>
        <path class="st0" d="M72.9,9.5C60.2-3.2,39.7-3.2,27.1,9.5c-12.6,12.6-12.6,33.1,0,45.8c12.6,12.6,33.1,12.6,45.8,0
		C85.5,42.6,85.5,22.1,72.9,9.5z M65.1,47.5c-8.3,8.3-21.9,8.3-30.3,0c-8.3-8.3-8.3-21.9,0-30.3c8.3-8.3,21.9-8.3,30.3,0
		C73.4,25.6,73.4,39.2,65.1,47.5z"/>
</g>
</svg>

