<svg xmlns="http://www.w3.org/2000/svg" width="122.7" height="121.7"><path d="M27.6 111.9c-7.8 2.4-15.3 5.1-23.4 7.3 2.6-7.2 4.7-14.9 7.6-21.9C6.3 88.4 1.2 79.2.2 67.3-.8 54.7 1.8 42.7 6.9 33 16 15.6 34.4 1.7 58.2.1c22.6-1.4 39.7 9 50.7 22.5 11 13.3 17.7 34.7 11.3 56.2-5.2 17.3-18.6 31.3-34.6 38.3-17.9 7.8-44.6 5.5-58-5.2zm62.5-38.6c-2.8-1.4-7-4.4-9.7-3.9-3.8.6-5.6 9-9.4 9.4-2.1.2-5.9-2.4-8.5-4-6.4-3.9-9.4-6.6-13.4-11.5-1.4-1.7-5.1-5.5-4.9-7.9.2-3.2 5.9-4.9 6.1-9.1.1-3-2.6-6.6-3.6-9.1-1.4-3.3-1.7-6.2-4.3-8.8-8.3-2.5-13.3 3.3-15.5 8.8-4.1 10.6 2 20.7 6.7 27.3 6.6 9.4 16.2 19.1 26.7 24.3 5.8 2.8 13.2 5.9 19.1 6.4 10.5.8 20-5.8 19.2-17-2.1-2.2-5.1-3.2-8.5-4.9z" fill="#4ea734"/></svg>